<?xml version="1.0" standalone="no"?><!DOCTYPE svg PUBLIC "-//W3C//DTD SVG 1.1//EN" "http://www.w3.org/Graphics/SVG/1.1/DTD/svg11.dtd"><svg t="1642859144678" class="icon" viewBox="0 0 1024 1024" version="1.1" xmlns="http://www.w3.org/2000/svg" p-id="3116" xmlns:xlink="http://www.w3.org/1999/xlink" width="128" height="128"><defs><style type="text/css"></style></defs><path d="M509.911432 65.09967c245.415432-0.033769 445.472817 199.11492 445.37765 443.353551-0.098237 249.607918-198.62271 447.453938-448.672696 447.143876-243.12118-0.297782-441.790962-200.443172-441.827801-445.11159C64.748676 264.299525 263.800151 65.134463 509.911432 65.09967z m256.975723 274.468119a3995.396721 3995.396721 0 0 1 2.084474-4.987594c-4.597715-3.260254-9.16166-6.568602-13.799284-9.775644-48.090275-33.250288-100.267635-58.080813-155.789159-76.212776-81.407078-26.581402-164.638711-31.213909-249.120824-21.342074-12.458753 1.454118-21.657252 7.325849-21.647019 21.281699 0.013303 19.96982-0.38681 40.075741 1.941212 59.818387 0.601704 5.106298 10.390651 12.44545 16.492626 13.012361 25.929556 2.407839 52.057633 2.723018 78.117148 3.681856 34.860972 1.284249 56.918337 23.137976 56.226583 57.487296-1.147126 56.891731-3.210112 113.76709-4.757351 170.653705-1.882883 69.328995-3.861958 138.655943-5.344728 207.996194-0.783853 36.807301 13.555737 65.75868 47.25321 83.001389 15.001669 7.67582 25.322735 1.154289 26.443256-15.782451 0.312108-4.722558 0.079818-9.481955 0.074701-14.226003-0.161682-143.468552-0.410346-286.931988-0.436952-430.397471-0.008186-40.274262 25.232684-62.207807 65.173349-57.657164 16.477276 1.877767 33.006741 3.334955 49.53416 4.717442 35.842323 2.99931 71.701019 5.829775 107.554598 8.730848z" fill="#d81e06" p-id="3117"></path></svg>